<svg width="197" height="96" viewBox="0 0 197 96" fill="none" xmlns="http://www.w3.org/2000/svg">
<path d="M18.3097 18.2756C18.196 17.1297 17.7083 16.2396 16.8466 15.6051C15.9848 14.9706 14.8153 14.6534 13.3381 14.6534C12.3343 14.6534 11.4867 14.7955 10.7955 15.0795C10.1042 15.3542 9.57386 15.7377 9.20455 16.2301C8.8447 16.7225 8.66477 17.2812 8.66477 17.9062C8.64583 18.4271 8.75473 18.8816 8.99148 19.2699C9.23769 19.6581 9.57386 19.9943 10 20.2784C10.4261 20.553 10.9186 20.7945 11.4773 21.0028C12.036 21.2017 12.6326 21.3722 13.267 21.5142L15.8807 22.1392C17.1496 22.4233 18.3144 22.8021 19.375 23.2756C20.4356 23.7491 21.3542 24.3314 22.1307 25.0227C22.9072 25.714 23.5085 26.5284 23.9347 27.4659C24.3703 28.4034 24.5928 29.4782 24.6023 30.6903C24.5928 32.4706 24.1383 34.0142 23.2386 35.321C22.3485 36.6184 21.0606 37.6269 19.375 38.3466C17.6989 39.0568 15.6771 39.4119 13.3097 39.4119C10.9612 39.4119 8.91572 39.0521 7.1733 38.3324C5.44034 37.6127 4.08617 36.5473 3.1108 35.1364C2.14489 33.7159 1.63826 31.9593 1.59091 29.8665H7.54261C7.6089 30.8419 7.88826 31.6562 8.38068 32.3097C8.88258 32.9536 9.55019 33.4413 10.3835 33.7727C11.2263 34.0947 12.178 34.2557 13.2386 34.2557C14.2803 34.2557 15.1847 34.1042 15.9517 33.8011C16.7282 33.4981 17.3295 33.0767 17.7557 32.5369C18.1818 31.9972 18.3949 31.3769 18.3949 30.6761C18.3949 30.0227 18.2008 29.4735 17.8125 29.0284C17.4337 28.5833 16.875 28.2045 16.1364 27.892C15.4072 27.5795 14.5123 27.2955 13.4517 27.0398L10.2841 26.2443C7.83144 25.6477 5.89489 24.715 4.47443 23.446C3.05398 22.1771 2.34848 20.4678 2.35795 18.3182C2.34848 16.5568 2.81723 15.018 3.7642 13.7017C4.72064 12.3854 6.0322 11.358 7.69886 10.6193C9.36553 9.88068 11.2595 9.51136 13.3807 9.51136C15.5398 9.51136 17.4242 9.88068 19.0341 10.6193C20.6534 11.358 21.9129 12.3854 22.8125 13.7017C23.7121 15.018 24.1761 16.5426 24.2045 18.2756H18.3097ZM40.2308 17.1818V21.7273H27.0916V17.1818H40.2308ZM30.0746 11.9545H36.1257V32.2955C36.1257 32.8542 36.2109 33.2898 36.3814 33.6023C36.5518 33.9053 36.7886 34.1184 37.0916 34.2415C37.4041 34.3646 37.764 34.4261 38.1712 34.4261C38.4553 34.4261 38.7393 34.4025 39.0234 34.3551C39.3075 34.2983 39.5253 34.2557 39.6768 34.2273L40.6286 38.7301C40.3255 38.8248 39.8994 38.9337 39.3501 39.0568C38.8009 39.1894 38.1333 39.2699 37.3473 39.2983C35.889 39.3551 34.6106 39.161 33.5121 38.7159C32.4231 38.2708 31.5755 37.5795 30.9695 36.642C30.3634 35.7045 30.0651 34.5208 30.0746 33.0909V11.9545ZM44.1726 39V17.1818H50.0391V20.9886H50.2663C50.6641 19.6345 51.3317 18.6117 52.2692 17.9205C53.2067 17.2197 54.2862 16.8693 55.5078 16.8693C55.8108 16.8693 56.1375 16.8883 56.4879 16.9261C56.8383 16.964 57.1461 17.0161 57.4112 17.0824V22.4517C57.1271 22.3665 56.7341 22.2907 56.2322 22.2244C55.7304 22.1581 55.2711 22.125 54.8544 22.125C53.9643 22.125 53.1688 22.3191 52.468 22.7074C51.7768 23.0862 51.2275 23.6165 50.8203 24.2983C50.4226 24.9801 50.2237 25.7661 50.2237 26.6562V39H44.1726ZM69.4673 39.4261C67.223 39.4261 65.2912 38.9716 63.6719 38.0625C62.062 37.1439 60.8215 35.8466 59.9503 34.1705C59.0791 32.4848 58.6435 30.4915 58.6435 28.1903C58.6435 25.946 59.0791 23.9763 59.9503 22.2812C60.8215 20.5862 62.0478 19.2652 63.6293 18.3182C65.2202 17.3712 67.0857 16.8977 69.2259 16.8977C70.6652 16.8977 72.0052 17.1297 73.2457 17.5938C74.4957 18.0483 75.5848 18.7348 76.5128 19.6534C77.4503 20.572 78.1795 21.7273 78.7003 23.1193C79.2211 24.5019 79.4815 26.1212 79.4815 27.9773V29.6392H61.0582V25.8892H73.7855C73.7855 25.018 73.5961 24.2462 73.2173 23.5739C72.8385 22.9015 72.313 22.3759 71.6406 21.9972C70.9777 21.6089 70.206 21.4148 69.3253 21.4148C68.4067 21.4148 67.5923 21.6278 66.8821 22.054C66.1813 22.4706 65.6321 23.0341 65.2344 23.7443C64.8366 24.4451 64.633 25.2263 64.6236 26.0881V29.6534C64.6236 30.733 64.8224 31.6657 65.2202 32.4517C65.6274 33.2377 66.2003 33.8438 66.9389 34.2699C67.6776 34.696 68.5535 34.9091 69.5668 34.9091C70.2391 34.9091 70.8546 34.8144 71.4134 34.625C71.9721 34.4356 72.4503 34.1515 72.848 33.7727C73.2457 33.3939 73.5488 32.9299 73.7571 32.3807L79.3537 32.75C79.0696 34.0947 78.4872 35.2689 77.6065 36.2727C76.7353 37.267 75.6084 38.0436 74.2259 38.6023C72.8527 39.1515 71.2666 39.4261 69.4673 39.4261ZM89.652 39.4119C88.2599 39.4119 87.0194 39.1705 85.9304 38.6875C84.8414 38.1951 83.9796 37.4706 83.3452 36.5142C82.7202 35.5483 82.4077 34.3456 82.4077 32.9062C82.4077 31.6941 82.6302 30.6761 83.0753 29.8523C83.5204 29.0284 84.1264 28.3655 84.8935 27.8636C85.6605 27.3617 86.5317 26.983 87.5071 26.7273C88.492 26.4716 89.5241 26.2917 90.6037 26.1875C91.8726 26.0549 92.8954 25.9318 93.6719 25.8182C94.4484 25.6951 95.0118 25.5152 95.3622 25.2784C95.7126 25.0417 95.8878 24.6913 95.8878 24.2273V24.142C95.8878 23.2424 95.6037 22.5464 95.0355 22.054C94.4768 21.5616 93.6813 21.3153 92.6491 21.3153C91.5601 21.3153 90.6937 21.5568 90.0497 22.0398C89.4058 22.5133 88.9796 23.1098 88.7713 23.8295L83.1747 23.375C83.4588 22.0492 84.0175 20.9034 84.8509 19.9375C85.6842 18.9621 86.759 18.214 88.0753 17.6932C89.401 17.1629 90.9351 16.8977 92.6776 16.8977C93.8897 16.8977 95.0497 17.0398 96.1577 17.3239C97.2751 17.608 98.2647 18.0483 99.1264 18.6449C99.9976 19.2415 100.684 20.0085 101.186 20.946C101.688 21.8741 101.939 22.9867 101.939 24.2841V39H96.2003V35.9744H96.0298C95.6795 36.6562 95.2107 37.2576 94.6236 37.7784C94.0365 38.2898 93.331 38.6922 92.5071 38.9858C91.6832 39.2699 90.7315 39.4119 89.652 39.4119ZM91.3849 35.2358C92.2751 35.2358 93.0611 35.0606 93.7429 34.7102C94.4247 34.3504 94.9598 33.8674 95.348 33.2614C95.7363 32.6553 95.9304 31.9687 95.9304 31.2017V28.8864C95.741 29.0095 95.4806 29.1231 95.1491 29.2273C94.8272 29.322 94.4626 29.4119 94.0554 29.4972C93.6482 29.5729 93.241 29.6439 92.8338 29.7102C92.4266 29.767 92.0573 29.8191 91.7259 29.8665C91.0156 29.9706 90.3954 30.1364 89.8651 30.3636C89.3348 30.5909 88.9228 30.8987 88.6293 31.2869C88.3357 31.6657 88.1889 32.1392 88.1889 32.7074C88.1889 33.5312 88.4872 34.161 89.0838 34.5966C89.6899 35.0227 90.4569 35.2358 91.3849 35.2358ZM106.634 39V17.1818H112.401V21.0312H112.656C113.111 19.7528 113.868 18.7443 114.929 18.0057C115.99 17.267 117.259 16.8977 118.736 16.8977C120.232 16.8977 121.506 17.2718 122.557 18.0199C123.608 18.7585 124.309 19.7623 124.659 21.0312H124.886C125.331 19.7812 126.136 18.7822 127.301 18.0341C128.475 17.2765 129.863 16.8977 131.463 16.8977C133.499 16.8977 135.152 17.5464 136.42 18.8438C137.699 20.1316 138.338 21.9593 138.338 24.3267V39H132.301V25.5199C132.301 24.3078 131.979 23.3987 131.335 22.7926C130.691 22.1866 129.886 21.8835 128.92 21.8835C127.822 21.8835 126.965 22.2339 126.349 22.9347C125.734 23.6259 125.426 24.5398 125.426 25.6761V39H119.56V25.392C119.56 24.322 119.252 23.4697 118.636 22.8352C118.03 22.2008 117.23 21.8835 116.236 21.8835C115.563 21.8835 114.957 22.054 114.418 22.3949C113.887 22.7263 113.466 23.1951 113.153 23.8011C112.841 24.3977 112.685 25.0985 112.685 25.9034V39H106.634ZM113.622 87V57.9091H119.773V69.9119H132.259V57.9091H138.395V87H132.259V74.983H119.773V87H113.622ZM161.435 57.9091H167.585V76.8011C167.585 78.9223 167.079 80.7784 166.065 82.3693C165.062 83.9602 163.655 85.2008 161.847 86.0909C160.038 86.9716 157.931 87.4119 155.526 87.4119C153.111 87.4119 150.999 86.9716 149.19 86.0909C147.382 85.2008 145.975 83.9602 144.972 82.3693C143.968 80.7784 143.466 78.9223 143.466 76.8011V57.9091H149.616V76.2756C149.616 77.3835 149.858 78.3684 150.341 79.2301C150.833 80.0919 151.525 80.7689 152.415 81.2614C153.305 81.7538 154.342 82 155.526 82C156.719 82 157.756 81.7538 158.636 81.2614C159.527 80.7689 160.213 80.0919 160.696 79.2301C161.188 78.3684 161.435 77.3835 161.435 76.2756V57.9091ZM172.646 87V57.9091H184.293C186.433 57.9091 188.219 58.2263 189.648 58.8608C191.078 59.4953 192.153 60.3759 192.873 61.5028C193.593 62.6203 193.952 63.9081 193.952 65.3665C193.952 66.5028 193.725 67.5019 193.271 68.3636C192.816 69.2159 192.191 69.9167 191.396 70.4659C190.61 71.0057 189.71 71.3892 188.697 71.6165V71.9006C189.805 71.9479 190.842 72.2604 191.808 72.8381C192.783 73.4157 193.574 74.2254 194.18 75.267C194.786 76.2992 195.089 77.5303 195.089 78.9602C195.089 80.5038 194.705 81.8816 193.938 83.0938C193.181 84.2964 192.058 85.2481 190.572 85.9489C189.085 86.6496 187.253 87 185.075 87H172.646ZM178.796 81.9716H183.81C185.524 81.9716 186.774 81.6449 187.56 80.9915C188.346 80.3286 188.739 79.4479 188.739 78.3494C188.739 77.5445 188.545 76.8343 188.157 76.2188C187.769 75.6032 187.215 75.1203 186.495 74.7699C185.785 74.4195 184.937 74.2443 183.952 74.2443H178.796V81.9716ZM178.796 70.0824H183.356C184.199 70.0824 184.947 69.9356 185.6 69.642C186.263 69.339 186.784 68.9129 187.163 68.3636C187.551 67.8144 187.745 67.1562 187.745 66.3892C187.745 65.3381 187.371 64.4905 186.623 63.8466C185.884 63.2027 184.833 62.8807 183.469 62.8807H178.796V70.0824Z" fill="url(#paint0_linear_171_776)"/>
<rect x="3" y="54" width="97" height="37" rx="18.5" fill="url(#paint1_linear_171_776)"/>
<rect x="149" y="14" width="45" height="28" rx="14" fill="url(#paint2_linear_171_776)"/>
<defs>
<linearGradient id="paint0_linear_171_776" x1="30.5" y1="21.5" x2="193" y2="74.5" gradientUnits="userSpaceOnUse">
<stop stop-color="#8CCDA2"/>
<stop offset="1" stop-color="#11B6DD"/>
</linearGradient>
<linearGradient id="paint1_linear_171_776" x1="13.67" y1="58.4655" x2="103.192" y2="75.4808" gradientUnits="userSpaceOnUse">
<stop stop-color="#8CCDA2"/>
<stop offset="1" stop-color="#59C4BB"/>
</linearGradient>
<linearGradient id="paint2_linear_171_776" x1="151.143" y1="16.5455" x2="196.651" y2="35.7009" gradientUnits="userSpaceOnUse">
<stop stop-color="#45C0C4"/>
<stop offset="1" stop-color="#11B6DD"/>
</linearGradient>
</defs>
</svg>
